<svg width="409" height="40" viewBox="0 0 409 40" fill="none" xmlns="http://www.w3.org/2000/svg">
<line x1="38.5185" y1="1.98151" x2="19.2593" y2="1.98151" stroke="white"/>
<line x1="38.5185" y1="19.7593" x2="19.2593" y2="19.7593" stroke="white"/>
<line x1="20.7407" y1="1.98151" x2="1.48146" y2="1.98151" stroke="white"/>
<line x1="20.7407" y1="37.537" x2="1.48146" y2="37.537" stroke="white"/>
<line x1="38.5185" y1="37.537" x2="19.2593" y2="37.537" stroke="white"/>
<line x1="2.46295" y1="20.7407" x2="2.46295" y2="1.48146" stroke="white"/>
<line x1="2.46295" y1="38.5185" x2="2.46295" y2="19.2593" stroke="white"/>
<line x1="38.0185" y1="38.5185" x2="38.0185" y2="19.2593" stroke="white"/>
<circle cx="2.22222" cy="2.22222" r="2.22222" fill="#C4C4C4"/>
<circle cx="20" cy="2.22222" r="2.22222" fill="#C4C4C4"/>
<circle cx="37.7778" cy="2.22222" r="2.22222" fill="#C4C4C4"/>
<circle cx="37.7778" cy="37.7778" r="2.22222" fill="#C4C4C4"/>
<circle cx="37.7778" cy="20" r="2.22222" fill="#C4C4C4"/>
<circle cx="20" cy="20" r="2.22222" fill="#C4C4C4"/>
<circle cx="20" cy="37.7778" r="2.22222" fill="#C4C4C4"/>
<circle cx="2.22222" cy="37.7778" r="2.22222" fill="#C4C4C4"/>
<circle cx="2.22222" cy="20" r="2.22222" fill="#C4C4C4"/>
<line x1="257.463" y1="20.7407" x2="257.463" y2="1.48146" stroke="white"/>
<line x1="293.019" y1="20.7407" x2="293.019" y2="1.48146" stroke="white"/>
<line x1="275.741" y1="19.7593" x2="256.481" y2="19.7593" stroke="white"/>
<line x1="293.519" y1="19.7593" x2="274.259" y2="19.7593" stroke="white"/>
<path d="M275 38.5185V19.2593" stroke="white"/>
<circle cx="257.222" cy="2.22222" r="2.22222" fill="#C4C4C4"/>
<circle cx="292.778" cy="2.22222" r="2.22222" fill="#C4C4C4"/>
<circle cx="292.778" cy="20" r="2.22222" fill="#C4C4C4"/>
<circle cx="275" cy="20" r="2.22222" fill="#C4C4C4"/>
<circle cx="275" cy="37.7778" r="2.22222" fill="#C4C4C4"/>
<circle cx="257.222" cy="20" r="2.22222" fill="#C4C4C4"/>
<line x1="172.463" y1="20.7407" x2="172.463" y2="1.48146" stroke="white"/>
<line x1="172.463" y1="38.5185" x2="172.463" y2="19.2593" stroke="white"/>
<line x1="208.019" y1="38.5185" x2="208.019" y2="19.2593" stroke="white"/>
<line x1="208.019" y1="20.7407" x2="208.019" y2="1.48146" stroke="white"/>
<line x1="189.37" y1="18.5961" x2="172.609" y2="1.83503" stroke="white"/>
<line x1="208.63" y1="37.8554" x2="191.869" y2="21.0943" stroke="white"/>
<circle cx="172.222" cy="2.22222" r="2.22222" fill="#C4C4C4"/>
<circle cx="207.778" cy="2.22222" r="2.22222" fill="#C4C4C4"/>
<circle cx="207.778" cy="37.7778" r="2.22222" fill="#C4C4C4"/>
<circle cx="207.778" cy="20" r="2.22222" fill="#C4C4C4"/>
<circle cx="190" cy="20" r="2.22222" fill="#C4C4C4"/>
<circle cx="172.222" cy="37.7778" r="2.22222" fill="#C4C4C4"/>
<circle cx="172.222" cy="20" r="2.22222" fill="#C4C4C4"/>
<line x1="133.741" y1="1.98151" x2="114.481" y2="1.98151" stroke="white"/>
<line x1="133.741" y1="37.537" x2="114.481" y2="37.537" stroke="white"/>
<line x1="151.519" y1="37.537" x2="132.259" y2="37.537" stroke="white"/>
<line x1="151.519" y1="1.98151" x2="132.259" y2="1.98151" stroke="white"/>
<line x1="115.463" y1="20.7407" x2="115.463" y2="1.48146" stroke="white"/>
<line x1="151.019" y1="20.7407" x2="151.019" y2="1.48146" stroke="white"/>
<line x1="151.019" y1="38.5185" x2="151.019" y2="19.2593" stroke="white"/>
<line x1="115.463" y1="38.5185" x2="115.463" y2="19.2593" stroke="white"/>
<circle cx="115.222" cy="2.22222" r="2.22222" fill="#C4C4C4"/>
<circle cx="133" cy="2.22222" r="2.22222" fill="#C4C4C4"/>
<circle cx="150.778" cy="2.22222" r="2.22222" fill="#C4C4C4"/>
<circle cx="115.222" cy="20" r="2.22222" fill="#C4C4C4"/>
<circle cx="115.222" cy="37.7778" r="2.22222" fill="#C4C4C4"/>
<circle cx="133" cy="37.7778" r="2.22222" fill="#C4C4C4"/>
<circle cx="150.778" cy="37.7778" r="2.22222" fill="#C4C4C4"/>
<circle cx="150.778" cy="20" r="2.22222" fill="#C4C4C4"/>
<line x1="332.741" y1="1.98151" x2="313.481" y2="1.98151" stroke="white"/>
<line x1="332.741" y1="37.537" x2="313.481" y2="37.537" stroke="white"/>
<line x1="350.519" y1="37.537" x2="331.259" y2="37.537" stroke="white"/>
<line x1="350.519" y1="1.98151" x2="331.259" y2="1.98151" stroke="white"/>
<line x1="314.463" y1="20.7407" x2="314.463" y2="1.48146" stroke="white"/>
<line x1="350.019" y1="20.7407" x2="350.019" y2="1.48146" stroke="white"/>
<line x1="350.019" y1="38.5185" x2="350.019" y2="19.2593" stroke="white"/>
<line x1="314.463" y1="38.5185" x2="314.463" y2="19.2593" stroke="white"/>
<circle cx="314.222" cy="2.22222" r="2.22222" fill="#C4C4C4"/>
<circle cx="332" cy="2.22222" r="2.22222" fill="#C4C4C4"/>
<circle cx="349.778" cy="2.22222" r="2.22222" fill="#C4C4C4"/>
<circle cx="314.222" cy="20" r="2.22222" fill="#C4C4C4"/>
<circle cx="314.222" cy="37.7778" r="2.22222" fill="#C4C4C4"/>
<circle cx="332" cy="37.7778" r="2.22222" fill="#C4C4C4"/>
<circle cx="349.778" cy="37.7778" r="2.22222" fill="#C4C4C4"/>
<circle cx="349.778" cy="20" r="2.22222" fill="#C4C4C4"/>
<line x1="389.741" y1="1.98151" x2="370.481" y2="1.98151" stroke="white"/>
<line x1="389.741" y1="37.537" x2="370.481" y2="37.537" stroke="white"/>
<line x1="407.519" y1="37.537" x2="388.259" y2="37.537" stroke="white"/>
<line x1="407.519" y1="1.98151" x2="388.259" y2="1.98151" stroke="white"/>
<line x1="371.463" y1="20.7407" x2="371.463" y2="1.48146" stroke="white"/>
<line x1="407.019" y1="20.7407" x2="407.019" y2="1.48146" stroke="white"/>
<line x1="407.019" y1="38.5185" x2="407.019" y2="19.2593" stroke="white"/>
<line x1="371.463" y1="38.5185" x2="371.463" y2="19.2593" stroke="white"/>
<circle cx="371.222" cy="2.22222" r="2.22222" fill="#C4C4C4"/>
<circle cx="389" cy="2.22222" r="2.22222" fill="#C4C4C4"/>
<circle cx="406.778" cy="2.22222" r="2.22222" fill="#C4C4C4"/>
<circle cx="371.222" cy="20" r="2.22222" fill="#C4C4C4"/>
<circle cx="371.222" cy="37.7778" r="2.22222" fill="#C4C4C4"/>
<circle cx="389" cy="37.7778" r="2.22222" fill="#C4C4C4"/>
<circle cx="406.778" cy="37.7778" r="2.22222" fill="#C4C4C4"/>
<circle cx="406.778" cy="20" r="2.22222" fill="#C4C4C4"/>
<line x1="76.7407" y1="1.98151" x2="57.4815" y2="1.98151" stroke="white"/>
<line x1="76.7407" y1="1.98151" x2="57.4815" y2="1.98151" stroke="white"/>
<line x1="94.5185" y1="1.98151" x2="75.2593" y2="1.98151" stroke="white"/>
<line x1="76.7407" y1="19.7593" x2="57.4815" y2="19.7593" stroke="white"/>
<line x1="76.7407" y1="37.537" x2="57.4815" y2="37.537" stroke="white"/>
<line x1="94.5185" y1="37.537" x2="75.2593" y2="37.537" stroke="white"/>
<line x1="58.463" y1="20.7407" x2="58.463" y2="1.48146" stroke="white"/>
<line x1="58.463" y1="38.5185" x2="58.463" y2="19.2593" stroke="white"/>
<circle cx="58.2222" cy="2.22222" r="2.22222" fill="#C4C4C4"/>
<circle cx="58.2222" cy="20" r="2.22222" fill="#C4C4C4"/>
<circle cx="58.2222" cy="37.7778" r="2.22222" fill="#C4C4C4"/>
<circle cx="76" cy="2.22222" r="2.22222" fill="#C4C4C4"/>
<circle cx="93.7778" cy="2.22222" r="2.22222" fill="#C4C4C4"/>
<circle cx="76" cy="20" r="2.22222" fill="#C4C4C4"/>
<circle cx="76" cy="37.7778" r="2.22222" fill="#C4C4C4"/>
<circle cx="93.7778" cy="37.7778" r="2.22222" fill="#C4C4C4"/>
</svg>
