<svg width="129" height="27" viewBox="0 0 129 27" fill="none" xmlns="http://www.w3.org/2000/svg">
<g clip-path="url(#clip0)">
<path d="M14 13.5L1 13.5" stroke="white" stroke-width="2"/>
<line x1="26" y1="14" x2="13" y2="14" stroke="white" stroke-width="2"/>
<line x1="1" y1="14" x2="1" y2="1" stroke="white" stroke-width="2"/>
<line x1="25" y1="14" x2="25" y2="1" stroke="white" stroke-width="2"/>
<line x1="25" y1="26" x2="25" y2="13" stroke="white" stroke-width="2"/>
<line x1="1" y1="26" x2="1" y2="13" stroke="white" stroke-width="2"/>
<circle cx="1.5" cy="1.5" r="1.5" fill="#C4C4C4"/>
<circle cx="25.5" cy="1.5" r="1.5" fill="#C4C4C4"/>
<circle cx="1.5" cy="13.5" r="1.5" fill="#C4C4C4"/>
<circle cx="1.5" cy="25.5" r="1.5" fill="#C4C4C4"/>
<circle cx="25.5" cy="25.5" r="1.5" fill="#C4C4C4"/>
<circle cx="25.5" cy="13.5" r="1.5" fill="#C4C4C4"/>
<circle cx="13.5" cy="13.5" r="1.5" fill="#C4C4C4"/>
<line x1="48" y1="2" x2="35" y2="2" stroke="white" stroke-width="2"/>
<line x1="48" y1="26" x2="35" y2="26" stroke="white" stroke-width="2"/>
<line x1="60" y1="26" x2="47" y2="26" stroke="white" stroke-width="2"/>
<line x1="60" y1="2" x2="47" y2="2" stroke="white" stroke-width="2"/>
<line x1="35" y1="14" x2="35" y2="1" stroke="white" stroke-width="2"/>
<line x1="59" y1="14" x2="59" y2="1" stroke="white" stroke-width="2"/>
<line x1="59" y1="26" x2="59" y2="13" stroke="white" stroke-width="2"/>
<line x1="35" y1="26" x2="35" y2="13" stroke="white" stroke-width="2"/>
<circle cx="35.5" cy="1.5" r="1.5" fill="#C4C4C4"/>
<circle cx="47.5" cy="1.5" r="1.5" fill="#C4C4C4"/>
<circle cx="59.5" cy="1.5" r="1.5" fill="#C4C4C4"/>
<circle cx="35.5" cy="13.5" r="1.5" fill="#C4C4C4"/>
<circle cx="35.5" cy="25.5" r="1.5" fill="#C4C4C4"/>
<circle cx="47.5" cy="25.5" r="1.5" fill="#C4C4C4"/>
<circle cx="59.5" cy="25.5" r="1.5" fill="#C4C4C4"/>
<circle cx="59.5" cy="13.5" r="1.5" fill="#C4C4C4"/>
<line x1="69" y1="14" x2="69" y2="1" stroke="white" stroke-width="2"/>
<line x1="93" y1="14" x2="93" y2="1" stroke="white" stroke-width="2"/>
<line x1="93" y1="26" x2="93" y2="13" stroke="white" stroke-width="2"/>
<line x1="69" y1="26" x2="69" y2="13" stroke="white" stroke-width="2"/>
<circle cx="69.5" cy="13.5" r="1.5" fill="#C4C4C4"/>
<circle cx="69.5" cy="25.5" r="1.5" fill="#C4C4C4"/>
<circle cx="93.5" cy="25.5" r="1.5" fill="#C4C4C4"/>
<circle cx="93.5" cy="13.5" r="1.5" fill="#C4C4C4"/>
<line x1="80.5167" y1="24.7024" x2="69.1102" y2="2.45628" stroke="white" stroke-width="2"/>
<line x1="81.6979" y1="24.8881" x2="92.348" y2="2.27012" stroke="white" stroke-width="2"/>
<circle cx="69.5" cy="1.5" r="1.5" fill="#C4C4C4"/>
<circle cx="81.5" cy="25.5" r="1.5" fill="#C4C4C4"/>
<circle cx="93.5" cy="1.5" r="1.5" fill="#C4C4C4"/>
<line x1="116" y1="1.5" x2="103" y2="1.5" stroke="white"/>
<line x1="116" y1="2" x2="103" y2="2" stroke="white" stroke-width="2"/>
<line x1="128" y1="2" x2="115" y2="2" stroke="white" stroke-width="2"/>
<line x1="116" y1="14" x2="103" y2="14" stroke="white" stroke-width="2"/>
<line x1="116" y1="26" x2="103" y2="26" stroke="white" stroke-width="2"/>
<line x1="128" y1="26" x2="115" y2="26" stroke="white" stroke-width="2"/>
<line x1="103" y1="14" x2="103" y2="1" stroke="white" stroke-width="2"/>
<line x1="103" y1="26" x2="103" y2="13" stroke="white" stroke-width="2"/>
<circle cx="103.5" cy="1.5" r="1.5" fill="#C4C4C4"/>
<circle cx="103.5" cy="13.5" r="1.5" fill="#C4C4C4"/>
<circle cx="103.5" cy="25.5" r="1.5" fill="#C4C4C4"/>
<circle cx="115.5" cy="1.5" r="1.5" fill="#C4C4C4"/>
<circle cx="127.5" cy="1.5" r="1.5" fill="#C4C4C4"/>
<circle cx="115.5" cy="13.5" r="1.5" fill="#C4C4C4"/>
<circle cx="115.5" cy="25.5" r="1.5" fill="#C4C4C4"/>
<circle cx="127.5" cy="25.5" r="1.5" fill="#C4C4C4"/>
</g>
<defs>
<clipPath id="clip0">
<rect width="129" height="27" fill="white"/>
</clipPath>
</defs>
</svg>
