<svg width="128" height="27" viewBox="0 0 128 27" fill="none" xmlns="http://www.w3.org/2000/svg">
<g clip-path="url(#clip0)">
<line x1="0.333336" y1="14" x2="0.333336" y2="1" stroke="white" stroke-width="2"/>
<line x1="16.3333" y1="26" x2="16.3333" y2="13" stroke="white" stroke-width="2"/>
<path d="M9.33334 13.5L0.66667 13.5" stroke="white" stroke-width="2"/>
<line x1="17.3333" y1="14" x2="8.66667" y2="14" stroke="white" stroke-width="2"/>
<line x1="17.3333" y1="2" x2="8.66667" y2="2" stroke="white" stroke-width="2"/>
<line x1="9.33334" y1="2" x2="0.66667" y2="2" stroke="white" stroke-width="2"/>
<line x1="9.33334" y1="26" x2="0.66667" y2="26" stroke="white" stroke-width="2"/>
<line x1="17.3333" y1="26" x2="8.66667" y2="26" stroke="white" stroke-width="2"/>
<ellipse cx="9" cy="25.5" rx="1" ry="1.5" fill="#C4C4C4"/>
<ellipse cx="1" cy="1.5" rx="1" ry="1.5" fill="#C4C4C4"/>
<ellipse cx="17" cy="1.5" rx="1" ry="1.5" fill="#C4C4C4"/>
<ellipse cx="17" cy="25.5" rx="1" ry="1.5" fill="#C4C4C4"/>
<ellipse cx="17" cy="13.5" rx="1" ry="1.5" fill="#C4C4C4"/>
<ellipse cx="9" cy="13.5" rx="1" ry="1.5" fill="#C4C4C4"/>
<ellipse cx="1" cy="25.5" rx="1" ry="1.5" fill="#C4C4C4"/>
<ellipse cx="1" cy="13.5" rx="1" ry="1.5" fill="#C4C4C4"/>
<ellipse cx="9" cy="1.5" rx="1" ry="1.5" fill="#C4C4C4"/>
<line x1="22.3333" y1="14" x2="22.3333" y2="1" stroke="white" stroke-width="2"/>
<line x1="22.3333" y1="26" x2="22.3333" y2="13" stroke="white" stroke-width="2"/>
<ellipse cx="23" cy="1.5" rx="1" ry="1.5" fill="#C4C4C4"/>
<ellipse cx="23" cy="25.5" rx="1" ry="1.5" fill="#C4C4C4"/>
<line y1="-1" x2="18.6907" y2="-1" transform="matrix(0.794518 -0.607241 0.321634 0.946864 24 13.3498)" stroke="white" stroke-width="2"/>
<ellipse cx="39" cy="1.5" rx="1" ry="1.5" fill="#C4C4C4"/>
<line y1="-1" x2="20.2481" y2="-1" transform="matrix(-0.788978 -0.614421 0.327077 -0.944998 39.3087 25.4409)" stroke="white" stroke-width="2"/>
<ellipse cx="39" cy="25.5" rx="1" ry="1.5" fill="#C4C4C4"/>
<ellipse cx="23" cy="13.5" rx="1" ry="1.5" fill="#C4C4C4"/>
<line x1="61.3333" y1="2" x2="52.6667" y2="2" stroke="white" stroke-width="2"/>
<line x1="53.3333" y1="2" x2="44.6667" y2="2" stroke="white" stroke-width="2"/>
<line x1="53.3333" y1="26" x2="44.6667" y2="26" stroke="white" stroke-width="2"/>
<line x1="61.3333" y1="26" x2="52.6667" y2="26" stroke="white" stroke-width="2"/>
<path d="M53 26V13" stroke="white" stroke-width="2"/>
<path d="M53 14V1" stroke="white" stroke-width="2"/>
<ellipse cx="45" cy="1.5" rx="1" ry="1.5" fill="#C4C4C4"/>
<ellipse cx="61" cy="1.5" rx="1" ry="1.5" fill="#C4C4C4"/>
<ellipse cx="61" cy="25.5" rx="1" ry="1.5" fill="#C4C4C4"/>
<ellipse cx="53" cy="13.5" rx="1" ry="1.5" fill="#C4C4C4"/>
<ellipse cx="45" cy="25.5" rx="1" ry="1.5" fill="#C4C4C4"/>
<ellipse cx="53" cy="1.5" rx="1" ry="1.5" fill="#C4C4C4"/>
<ellipse cx="53" cy="25.5" rx="1" ry="1.5" fill="#C4C4C4"/>
<line x1="75.3333" y1="26" x2="66.6667" y2="26" stroke="white" stroke-width="2"/>
<line x1="83.3333" y1="26" x2="74.6667" y2="26" stroke="white" stroke-width="2"/>
<line x1="66.3333" y1="14" x2="66.3333" y2="1" stroke="white" stroke-width="2"/>
<line x1="66.3333" y1="26" x2="66.3333" y2="13" stroke="white" stroke-width="2"/>
<ellipse cx="67" cy="1.5" rx="1" ry="1.5" fill="#C4C4C4"/>
<ellipse cx="67" cy="13.5" rx="1" ry="1.5" fill="#C4C4C4"/>
<ellipse cx="67" cy="25.5" rx="1" ry="1.5" fill="#C4C4C4"/>
<ellipse cx="75" cy="25.5" rx="1" ry="1.5" fill="#C4C4C4"/>
<ellipse cx="83" cy="25.5" rx="1" ry="1.5" fill="#C4C4C4"/>
<line x1="97.3333" y1="26" x2="88.6667" y2="26" stroke="white" stroke-width="2"/>
<line x1="105.333" y1="26" x2="96.6667" y2="26" stroke="white" stroke-width="2"/>
<line x1="88.3333" y1="14" x2="88.3333" y2="1" stroke="white" stroke-width="2"/>
<line x1="88.3333" y1="26" x2="88.3333" y2="13" stroke="white" stroke-width="2"/>
<ellipse cx="89" cy="1.5" rx="1" ry="1.5" fill="#C4C4C4"/>
<ellipse cx="89" cy="13.5" rx="1" ry="1.5" fill="#C4C4C4"/>
<ellipse cx="89" cy="25.5" rx="1" ry="1.5" fill="#C4C4C4"/>
<ellipse cx="97" cy="25.5" rx="1" ry="1.5" fill="#C4C4C4"/>
<ellipse cx="105" cy="25.5" rx="1" ry="1.5" fill="#C4C4C4"/>
<line x1="110.333" y1="14" x2="110.333" y2="1" stroke="white" stroke-width="2"/>
<line x1="126.333" y1="26" x2="126.333" y2="13" stroke="white" stroke-width="2"/>
<path d="M119.333 13.5L110.667 13.5" stroke="white" stroke-width="2"/>
<line x1="127.333" y1="14" x2="118.667" y2="14" stroke="white" stroke-width="2"/>
<line x1="127.333" y1="2" x2="118.667" y2="2" stroke="white" stroke-width="2"/>
<line x1="119.333" y1="2" x2="110.667" y2="2" stroke="white" stroke-width="2"/>
<line x1="119.333" y1="26" x2="110.667" y2="26" stroke="white" stroke-width="2"/>
<line x1="127.333" y1="26" x2="118.667" y2="26" stroke="white" stroke-width="2"/>
<ellipse cx="119" cy="25.5" rx="1" ry="1.5" fill="#C4C4C4"/>
<ellipse cx="111" cy="1.5" rx="1" ry="1.5" fill="#C4C4C4"/>
<ellipse cx="127" cy="1.5" rx="1" ry="1.5" fill="#C4C4C4"/>
<ellipse cx="127" cy="25.5" rx="1" ry="1.5" fill="#C4C4C4"/>
<ellipse cx="127" cy="13.5" rx="1" ry="1.5" fill="#C4C4C4"/>
<ellipse cx="119" cy="13.5" rx="1" ry="1.5" fill="#C4C4C4"/>
<ellipse cx="111" cy="25.5" rx="1" ry="1.5" fill="#C4C4C4"/>
<ellipse cx="111" cy="13.5" rx="1" ry="1.5" fill="#C4C4C4"/>
<ellipse cx="119" cy="1.5" rx="1" ry="1.5" fill="#C4C4C4"/>
</g>
<defs>
<clipPath id="clip0">
<rect width="128" height="27" fill="white"/>
</clipPath>
</defs>
</svg>
