<svg width="128" height="27" viewBox="0 0 128 27" fill="none" xmlns="http://www.w3.org/2000/svg">
<g clip-path="url(#clip0)">
<line x1="7.77777" y1="2" x2="0.555549" y2="2" stroke="white" stroke-width="2"/>
<line x1="7.77777" y1="26" x2="0.555549" y2="26" stroke="white" stroke-width="2"/>
<line x1="14.4445" y1="26" x2="7.22224" y2="26" stroke="white" stroke-width="2"/>
<line x1="14.4445" y1="2" x2="7.22224" y2="2" stroke="white" stroke-width="2"/>
<line x1="0.111084" y1="14" x2="0.111084" y2="1" stroke="white" stroke-width="2"/>
<line x1="0.111084" y1="26" x2="0.111084" y2="13" stroke="white" stroke-width="2"/>
<ellipse cx="0.833333" cy="1.5" rx="0.833333" ry="1.5" fill="#C4C4C4"/>
<ellipse cx="7.50002" cy="1.5" rx="0.833333" ry="1.5" fill="#C4C4C4"/>
<ellipse cx="14.1666" cy="1.5" rx="0.833333" ry="1.5" fill="#C4C4C4"/>
<ellipse cx="0.833333" cy="13.5" rx="0.833333" ry="1.5" fill="#C4C4C4"/>
<ellipse cx="0.833333" cy="25.5" rx="0.833333" ry="1.5" fill="#C4C4C4"/>
<ellipse cx="7.50002" cy="25.5" rx="0.833333" ry="1.5" fill="#C4C4C4"/>
<ellipse cx="14.1666" cy="25.5" rx="0.833333" ry="1.5" fill="#C4C4C4"/>
<line x1="26.7778" y1="2" x2="19.5555" y2="2" stroke="white" stroke-width="2"/>
<line x1="26.7778" y1="26" x2="19.5555" y2="26" stroke="white" stroke-width="2"/>
<line x1="33.4445" y1="26" x2="26.2222" y2="26" stroke="white" stroke-width="2"/>
<line x1="33.4445" y1="2" x2="26.2222" y2="2" stroke="white" stroke-width="2"/>
<line x1="19.1111" y1="14" x2="19.1111" y2="1" stroke="white" stroke-width="2"/>
<line x1="32.4445" y1="14" x2="32.4445" y2="1" stroke="white" stroke-width="2"/>
<line x1="32.4445" y1="26" x2="32.4445" y2="13" stroke="white" stroke-width="2"/>
<line x1="19.1111" y1="26" x2="19.1111" y2="13" stroke="white" stroke-width="2"/>
<ellipse cx="19.8333" cy="1.5" rx="0.833333" ry="1.5" fill="#C4C4C4"/>
<ellipse cx="26.5" cy="1.5" rx="0.833333" ry="1.5" fill="#C4C4C4"/>
<ellipse cx="33.1667" cy="1.5" rx="0.833333" ry="1.5" fill="#C4C4C4"/>
<ellipse cx="19.8333" cy="13.5" rx="0.833333" ry="1.5" fill="#C4C4C4"/>
<ellipse cx="19.8333" cy="25.5" rx="0.833333" ry="1.5" fill="#C4C4C4"/>
<ellipse cx="26.5" cy="25.5" rx="0.833333" ry="1.5" fill="#C4C4C4"/>
<ellipse cx="33.1667" cy="25.5" rx="0.833333" ry="1.5" fill="#C4C4C4"/>
<ellipse cx="33.1667" cy="13.5" rx="0.833333" ry="1.5" fill="#C4C4C4"/>
<line x1="38.1111" y1="15" x2="38.1111" y2="2" stroke="white" stroke-width="2"/>
<line x1="38.1111" y1="27" x2="38.1111" y2="14" stroke="white" stroke-width="2"/>
<line x1="51.4445" y1="27" x2="51.4445" y2="14" stroke="white" stroke-width="2"/>
<line x1="51.4445" y1="15" x2="51.4445" y2="2" stroke="white" stroke-width="2"/>
<line y1="-1" x2="12.9424" y2="-1" transform="matrix(-0.485643 -0.874157 0.485643 -0.874157 45.3965 13.3137)" stroke="white" stroke-width="2"/>
<line y1="-1" x2="12.9424" y2="-1" transform="matrix(-0.485643 -0.874157 0.485643 -0.874157 52.6187 26.3137)" stroke="white" stroke-width="2"/>
<ellipse cx="38.8333" cy="2.5" rx="0.833333" ry="1.5" fill="#C4C4C4"/>
<ellipse cx="52.1667" cy="2.5" rx="0.833333" ry="1.5" fill="#C4C4C4"/>
<ellipse cx="52.1667" cy="26.5" rx="0.833333" ry="1.5" fill="#C4C4C4"/>
<ellipse cx="52.1667" cy="14.5" rx="0.833333" ry="1.5" fill="#C4C4C4"/>
<ellipse cx="45.5" cy="14.5" rx="0.833333" ry="1.5" fill="#C4C4C4"/>
<ellipse cx="38.8333" cy="26.5" rx="0.833333" ry="1.5" fill="#C4C4C4"/>
<ellipse cx="38.8333" cy="14.5" rx="0.833333" ry="1.5" fill="#C4C4C4"/>
<path d="M64 26V13" stroke="white" stroke-width="2"/>
<line x1="70.4815" y1="2" x2="63.7407" y2="2" stroke="white" stroke-width="2"/>
<line x1="64.2592" y1="2" x2="57.5185" y2="2" stroke="white" stroke-width="2"/>
<path d="M64 14V1" stroke="white" stroke-width="2"/>
<ellipse cx="64" cy="13.5" rx="0.777777" ry="1.5" fill="#C4C4C4"/>
<ellipse cx="64" cy="1.5" rx="0.777777" ry="1.5" fill="#C4C4C4"/>
<ellipse cx="57.7778" cy="1.5" rx="0.777778" ry="1.5" fill="#C4C4C4"/>
<ellipse cx="70.2222" cy="1.5" rx="0.777778" ry="1.5" fill="#C4C4C4"/>
<ellipse cx="64" cy="25.5" rx="0.777777" ry="1.5" fill="#C4C4C4"/>
<line x1="89.4445" y1="1.5" x2="82.2222" y2="1.5" stroke="white" stroke-width="2"/>
<line x1="89.4445" y1="13.5" x2="82.2222" y2="13.5" stroke="white" stroke-width="2"/>
<line x1="82.7778" y1="13.5" x2="75.5555" y2="13.5" stroke="white" stroke-width="2"/>
<line x1="82.7778" y1="1.5" x2="75.5555" y2="1.5" stroke="white" stroke-width="2"/>
<line x1="75.3889" y1="14" x2="75.3889" y2="1" stroke="white" stroke-width="2"/>
<line x1="75.3889" y1="26" x2="75.3889" y2="13" stroke="white" stroke-width="2"/>
<line x1="88.7778" y1="26" x2="88.7778" y2="13" stroke="white" stroke-width="2"/>
<line x1="88.7778" y1="14" x2="88.7778" y2="1" stroke="white" stroke-width="2"/>
<ellipse cx="75.8333" cy="1.5" rx="0.833333" ry="1.5" fill="#C4C4C4"/>
<ellipse cx="82.5" cy="1.5" rx="0.833333" ry="1.5" fill="#C4C4C4"/>
<ellipse cx="89.1667" cy="1.5" rx="0.833333" ry="1.5" fill="#C4C4C4"/>
<ellipse cx="89.1667" cy="25.5" rx="0.833333" ry="1.5" fill="#C4C4C4"/>
<ellipse cx="89.1667" cy="13.5" rx="0.833333" ry="1.5" fill="#C4C4C4"/>
<ellipse cx="82.5" cy="13.5" rx="0.833333" ry="1.5" fill="#C4C4C4"/>
<ellipse cx="75.8333" cy="25.5" rx="0.833333" ry="1.5" fill="#C4C4C4"/>
<ellipse cx="75.8333" cy="13.5" rx="0.833333" ry="1.5" fill="#C4C4C4"/>
<line x1="101.778" y1="2" x2="94.5555" y2="2" stroke="white" stroke-width="2"/>
<line x1="101.778" y1="26" x2="94.5555" y2="26" stroke="white" stroke-width="2"/>
<line x1="108.444" y1="26" x2="101.222" y2="26" stroke="white" stroke-width="2"/>
<line x1="108.444" y1="2" x2="101.222" y2="2" stroke="white" stroke-width="2"/>
<line x1="94.1111" y1="14" x2="94.1111" y2="1" stroke="white" stroke-width="2"/>
<line x1="94.1111" y1="26" x2="94.1111" y2="13" stroke="white" stroke-width="2"/>
<ellipse cx="94.8333" cy="1.5" rx="0.833333" ry="1.5" fill="#C4C4C4"/>
<ellipse cx="101.5" cy="1.5" rx="0.833333" ry="1.5" fill="#C4C4C4"/>
<ellipse cx="108.167" cy="1.5" rx="0.833333" ry="1.5" fill="#C4C4C4"/>
<ellipse cx="94.8333" cy="13.5" rx="0.833333" ry="1.5" fill="#C4C4C4"/>
<ellipse cx="94.8333" cy="25.5" rx="0.833333" ry="1.5" fill="#C4C4C4"/>
<ellipse cx="101.5" cy="25.5" rx="0.833333" ry="1.5" fill="#C4C4C4"/>
<ellipse cx="108.167" cy="25.5" rx="0.833333" ry="1.5" fill="#C4C4C4"/>
<path d="M120.5 26V13" stroke="white" stroke-width="2"/>
<line x1="127.444" y1="2" x2="120.222" y2="2" stroke="white" stroke-width="2"/>
<line x1="120.778" y1="2" x2="113.556" y2="2" stroke="white" stroke-width="2"/>
<path d="M120.5 14V1" stroke="white" stroke-width="2"/>
<ellipse cx="120.5" cy="13.5" rx="0.833333" ry="1.5" fill="#C4C4C4"/>
<ellipse cx="120.5" cy="1.5" rx="0.833333" ry="1.5" fill="#C4C4C4"/>
<ellipse cx="113.833" cy="1.5" rx="0.833333" ry="1.5" fill="#C4C4C4"/>
<ellipse cx="127.167" cy="1.5" rx="0.833333" ry="1.5" fill="#C4C4C4"/>
<ellipse cx="120.5" cy="25.5" rx="0.833333" ry="1.5" fill="#C4C4C4"/>
</g>
<defs>
<clipPath id="clip0">
<rect width="128" height="27" fill="white"/>
</clipPath>
</defs>
</svg>
