<svg xmlns="http://www.w3.org/2000/svg" xmlns:xlink="http://www.w3.org/1999/xlink" data-name="Layer 1" viewBox="0 0 494.63 142">
  <defs>
    <linearGradient id="a" x1="42.81" x2="100.58" y1="70.9" y2="70.9" gradientUnits="userSpaceOnUse">
      <stop offset="0" stop-color="#48b549"/>
      <stop offset=".25" stop-color="#75bf43"/>
      <stop offset=".36" stop-color="#b8d334"/>
      <stop offset=".46" stop-color="#75bf43"/>
      <stop offset=".6" stop-color="#7cc243"/>
      <stop offset=".77" stop-color="#abd037"/>
      <stop offset=".86" stop-color="#75bf43"/>
      <stop offset=".99" stop-color="#48b549"/>
    </linearGradient>
    <linearGradient id="b" x1="17.87" x2="125.52" y1="70.92" y2="70.92" gradientUnits="userSpaceOnUse">
      <stop offset="0" stop-color="#539bd4"/>
      <stop offset=".21" stop-color="#539bd4"/>
      <stop offset=".3" stop-color="#77ccd8"/>
      <stop offset=".39" stop-color="#539bd4"/>
      <stop offset=".64" stop-color="#539bd4"/>
      <stop offset=".73" stop-color="#6bcadc"/>
      <stop offset=".83" stop-color="#539bd4"/>
      <stop offset=".99" stop-color="#539bd4"/>
    </linearGradient>
    <linearGradient id="c" x2="143.41" y1="71" y2="71" xlink:href="#a"/>
    <linearGradient id="d" x1="109.64" x2="92.89" y1="72.24" y2="147.36" xlink:href="#b"/>
    <linearGradient id="e" x1="6.6" x2="57.5" y1="78.4" y2="133.36" xlink:href="#b"/>
    <linearGradient id="f" x1="85.84" x2="126.04" y1="5.83" y2="58.23" xlink:href="#b"/>
    <linearGradient id="g" x1="-61.34" x2="-21.15" y1="5.83" y2="58.23" gradientTransform="matrix(-1 0 0 1 -3.79 0)" xlink:href="#b"/>
  </defs>
  <path fill="url(#a)" d="M66.31 46.2c-1.27-.49-4.87-2.43-4.87-2.43a19 19 0 0 0-2.09-.77 12.85 12.85 0 0 0-2.35-.6 9 9 0 0 0-1-.1H55.43a7.74 7.74 0 0 0-1.07.05 9.53 9.53 0 0 0-1.21.17h-.17l-.46.11-.23.07h-.13c-.19.06-.38.11-.55.18A13.87 13.87 0 0 0 46.68 46a13.51 13.51 0 0 0-3.12 4.8 3.58 3.58 0 0 0-.19.55v.14l-.06.21a4.48 4.48 0 0 0-.12.46v.18a7.89 7.89 0 0 0-.18 1.17 10 10 0 0 0-.06 1.08V55.16a6.51 6.51 0 0 0 .09 1 12.5 12.5 0 0 0 .55 2.39 17.17 17.17 0 0 0 .83 2.07l2.41 4.82c.08.18.15.36.23.53s.22.53.31.77l.39 1.17.24 1.21a1.29 1.29 0 0 1 .06.25l.21 1.49-.27 1.49c0 .08 0 .17-.05.26l-.28 1.16L47.3 75c-.09.25-.2.5-.31.76l-.23.53-2.45 4.83a17.75 17.75 0 0 0-.83 2.06 12.65 12.65 0 0 0-.56 2.38 8.61 8.61 0 0 0-.09 1V87.14a10.82 10.82 0 0 0 .17 2.18v.19c0 .15.08.31.12.46a1.42 1.42 0 0 1 .07.22v.13c.06.19.11.37.18.55a13.6 13.6 0 0 0 3.12 4.81 13.77 13.77 0 0 0 4.84 3.11c.19.08.39.13.58.19l.33.09c.15 0 .31.09.47.12h.17a9.81 9.81 0 0 0 1.19.19 10.35 10.35 0 0 0 1.1 0h.55c.34 0 .69 0 1-.09a12.58 12.58 0 0 0 2.4-.55 15.82 15.82 0 0 0 2.1-.82l4.86-2.4.54-.22.78-.31 1.17-.38 1.21-.27.25-.06a12.27 12.27 0 0 1 1.5-.2 14 14 0 0 1 1.5.21 1.22 1.22 0 0 1 .26.06l1.18.27 1.18.39c.26.09.51.2.78.31l.53.22L82 98a20.75 20.75 0 0 0 2.09.82 12.85 12.85 0 0 0 2.39.55 9 9 0 0 0 1 .1H88a7.74 7.74 0 0 0 1.07 0 8.35 8.35 0 0 0 1.22-.18h.15a4.05 4.05 0 0 0 .47-.12l.23-.06h.13a4.84 4.84 0 0 0 .54-.17 13.87 13.87 0 0 0 4.87-3.09A13.68 13.68 0 0 0 99.84 91a3.92 3.92 0 0 0 .18-.55v-.14c0-.07 0-.14.07-.22s.09-.3.12-.45v-.18a8.09 8.09 0 0 0 .18-1.17 10 10 0 0 0 .06-1.08v-.56c0-.33 0-.68-.09-1a12.58 12.58 0 0 0-.55-2.38 17.59 17.59 0 0 0-.81-2.11l-1.3-2.58-1.12-2.23-.23-.54c-.11-.27-.22-.52-.31-.76l-.38-1.17-.28-1.2-.06-.24-.17-1.44.22-1.49a1.14 1.14 0 0 1 .06-.25L95.7 68l.39-1.18c.1-.25.21-.52.33-.79s.15-.34.21-.5l2.45-4.83a17.85 17.85 0 0 0 .83-2.07 12.57 12.57 0 0 0 .56-2.37 9 9 0 0 0 .1-1v-.56a7.38 7.38 0 0 0 0-1 7.76 7.76 0 0 0-.18-1.19v-.18c0-.16-.08-.31-.12-.47l-.1-.33a3.65 3.65 0 0 0-.18-.56 13.58 13.58 0 0 0-3.12-4.82A13.79 13.79 0 0 0 92 43a4.17 4.17 0 0 0-.57-.18h-.13l-.3-.08a3.45 3.45 0 0 0-.46-.12h-.17a9.81 9.81 0 0 0-1.19-.19 10 10 0 0 0-1.08 0h-.57c-.34 0-.69 0-1 .09a13.51 13.51 0 0 0-2.4.54 20 20 0 0 0-2.1.82l-4.85 2.4-.55.23c-.27.11-.53.22-.77.3 0 0-.89.28-1.18.39a15.55 15.55 0 0 1-3 .53 24.27 24.27 0 0 1-5.37-1.53zm7.3 2.08a12.94 12.94 0 0 0 1.3-.06l1.31-.22c.32-.06.65-.14 1-.22l.51-.12 1.6-.52c1.18-.38 2.4-.81 3.57-1.22a17.28 17.28 0 0 1 1.91-.53 12.57 12.57 0 0 1 2-.27 5.3 5.3 0 0 1 .69 0h.61a6.06 6.06 0 0 1 .73.09 5.27 5.27 0 0 1 .77.16l.25.06c.1 0 .19.06.29.09l.2.07h.13a2.67 2.67 0 0 1 .36.14A11.81 11.81 0 0 1 97.07 52a2.67 2.67 0 0 1 .14.36v.11a1.72 1.72 0 0 0 .07.21 2.46 2.46 0 0 1 .09.29l.06.25a5 5 0 0 1 .16.77 5.45 5.45 0 0 1 .09.72V55.29a5.61 5.61 0 0 1 0 .71 10.34 10.34 0 0 1-.28 2 17.05 17.05 0 0 1-.53 1.89c-.43 1.17-.87 2.38-1.25 3.54L95.14 65l-.14.5c-.08.35-.16.68-.23 1l-.19 1.31-.06 1.26v.34l.11 1.51-.12 1.55v1.6l.18 1.3c.06.32.14.64.23 1 0 .15.07.32.12.5l.52 1.59c.38 1.16.81 2.37 1.24 3.54a19.56 19.56 0 0 1 .53 1.89 12.24 12.24 0 0 1 .27 2v.99a2.83 2.83 0 0 0 0 .29 4.7 4.7 0 0 1-.1.74 5.43 5.43 0 0 1-.16.76l-.06.25c0 .09-.06.19-.09.29s0 .13-.07.19v.13a2.21 2.21 0 0 1-.15.37 11.73 11.73 0 0 1-2.52 3.66 11.87 11.87 0 0 1-3.73 2.5l-.35.13h-.12l-.21.07a2.46 2.46 0 0 1-.29.09l-.25.06a10.32 10.32 0 0 1-1.5.25H87.4a4.24 4.24 0 0 1-.71 0 11.32 11.32 0 0 1-2-.27 17.77 17.77 0 0 1-1.9-.54c-1.19-.42-2.41-.85-3.58-1.24l-1.62-.52-.46-.09-1-.23s-.87-.16-1.17-.17c-2-.06-2.5.16-3.33.12a14.86 14.86 0 0 0-3.24-.16c-.32 0-1.26.19-1.26.19-.32.06-.63.15-1 .23l-.5.12-1.59.51c-1.18.38-2.4.81-3.57 1.23a16.48 16.48 0 0 1-1.91.52 10.53 10.53 0 0 1-2 .27 4.08 4.08 0 0 1-.7 0h-.59a4.67 4.67 0 0 1-.74-.09 5.43 5.43 0 0 1-.76-.16l-.25-.06c-.1 0-.2-.06-.3-.09l-.22-.08h-.13a3.44 3.44 0 0 1-.37-.14 11.91 11.91 0 0 1-6.22-6.19 2.67 2.67 0 0 1-.14-.36v-.12l-.06-.2a2.47 2.47 0 0 1-.1-.29l-.06-.24a6.49 6.49 0 0 1-.16-.79 5.29 5.29 0 0 1-.09-.71 2 2 0 0 0 0-.27v-.31a5.74 5.74 0 0 1 0-.72 10.68 10.68 0 0 1 .28-2 16.35 16.35 0 0 1 .53-1.88c.41-1.11.87-2.36 1.26-3.54l.53-1.6.11-.47c.09-.35.17-.68.23-1L48.8 74l.05-1.25v-.33l-.11-1.5.11-1.56v-1.6l-.19-1.3c-.06-.32-.14-.65-.23-1l-.12-.49-.51-1.59c-.39-1.17-.82-2.38-1.24-3.54a15.92 15.92 0 0 1-.56-1.93 11.32 11.32 0 0 1-.27-2 5.4 5.4 0 0 1 0-.7V54.63a6.06 6.06 0 0 1 .09-.73 5.43 5.43 0 0 1 .16-.76l.06-.25a2 2 0 0 1 .1-.29l.06-.19v-.13a3.44 3.44 0 0 1 .14-.37 11.73 11.73 0 0 1 2.52-3.66 11.87 11.87 0 0 1 3.73-2.5l.36-.13h.12l.2-.07.29-.09.25-.06a5 5 0 0 1 .79-.16 5.45 5.45 0 0 1 .72-.09H56a4.37 4.37 0 0 1 .72 0 11.57 11.57 0 0 1 2 .27c.59.13 1.19.3 1.9.53 1.25.45 2.43.87 3.57 1.24l1.62.53.48.11c.35.09.68.17 1 .23l1.33.2 1.27.05.86-.06c.24 0 .79-.06 1-.05.49-.04.88.02 1.86.08z"/>
  <path fill="url(#b)" d="M125.49 71.56V70.74l.07-1.84v-.88-.53-.27c0-.09 0-.37-.05-.57l-.13-.91v-.32c0-.11-.07-.45-.12-.69l-.38-1.63-.12-.37-.42-1.28-.79-1.45-.11-.24-.51-.93a8.38 8.38 0 0 0-.65-1l-.43-.61-.18-.21-.61-.7a4.57 4.57 0 0 0-.43-.45l-.7-.69-1.05-.89-.34-.25a26.61 26.61 0 0 0-6.47-3.47c-.91-.38-1.86-.74-2.78-1.08-1.42-.54-2.89-1.1-4.28-1.72a23.47 23.47 0 0 1-3.29-1.81 20 20 0 0 1-3-2.42c-.24-.22-.47-.45-.7-.69-.08-.08-.16-.17-.25-.25s-.29-.3-.42-.45l-.26-.29c-.13-.14-.25-.29-.37-.43l-.6-.74a22.43 22.43 0 0 1-2-3.14c-.49-.92-.92-1.91-1.33-2.86l-1.62-4c-.16-.43-.35-.86-.54-1.29l-.25-.57c-.21-.5-.43-1-.67-1.5s-.4-.79-.6-1.16l-.23-.44-.28-.47c-.2-.34-.4-.7-.63-1a21.16 21.16 0 0 0-1.97-2.7c-.44-.47-.79-.81-1.13-1.12l-.7-.61a4.25 4.25 0 0 0-.47-.37l-.62-.45a6.41 6.41 0 0 0-.61-.4l-.71-.42a4.59 4.59 0 0 0-.49-.26l-1.18-.54L79 17a6.07 6.07 0 0 0-.77-.23l-.32-.08-.5-.12a2.82 2.82 0 0 0-.52-.11l-.94-.15c-.29 0-.57-.08-.83-.09l-1.43-.08-1.85.07H70.16c-.52 0-1.06 0-1.61.07a18.26 18.26 0 0 0-3.87.73 16.17 16.17 0 0 0-4.78 2.36 18.82 18.82 0 0 0-4.42 4.74 35.76 35.76 0 0 0-3.24 6.46c-.23.56-.45 1.12-.67 1.68-.69 1.73-1.4 3.53-2.27 5.21a22.43 22.43 0 0 1-2 3.16c-.38.51-.79 1-1.21 1.46-.21.24-.44.47-.66.7l-.73.73a20.58 20.58 0 0 1-3 2.42 21.48 21.48 0 0 1-3.28 1.82c-1.43.67-2.95 1.23-4.42 1.78l-2.66 1A27.68 27.68 0 0 0 24.9 54a17.79 17.79 0 0 0-2.53 2.27 13.71 13.71 0 0 0-1.89 2.54 19 19 0 0 0-1.94 4.88 21.52 21.52 0 0 0-.61 3.83 22.09 22.09 0 0 0 0 2.44c0 .46.05.74.06.82l-.06.82v2.44a22.4 22.4 0 0 0 .52 3.87 17.59 17.59 0 0 0 1.88 4.94 13.13 13.13 0 0 0 1.87 2.54 10.41 10.41 0 0 0 .86.9l.31.3a5.3 5.3 0 0 0 .43.38l.23.2.22.18c.15.13.3.26.45.37a23.72 23.72 0 0 0 3.07 2 32.91 32.91 0 0 0 3.43 1.58c1 .4 2 .78 3 1.15 1.38.52 2.82 1.06 4.18 1.67a23.79 23.79 0 0 1 3.32 1.8 21.4 21.4 0 0 1 3 2.44c.24.23.48.46.71.7l.26.26c.14.15.29.29.42.45l.25.28.39.43.59.75a21.13 21.13 0 0 1 2 3.17c.51 1 1 2 1.37 3l1.59 3.94.49 1.17.24.55.37.84c.08.19.17.38.26.56l.13.27a26.26 26.26 0 0 0 1.77 3.11 19.91 19.91 0 0 0 2.09 2.67 17.78 17.78 0 0 0 2.34 2.09 16.37 16.37 0 0 0 4.77 2.41c.25.08.5.14.74.2l.36.09.27.06a5.24 5.24 0 0 0 .75.15l1.38.2 1.84.08 1.87-.09h1.25a20.38 20.38 0 0 0 2-.1 19.19 19.19 0 0 0 3.86-.81 15.75 15.75 0 0 0 4.75-2.42 19 19 0 0 0 4.33-4.81 38 38 0 0 0 3.15-6.56l.54-1.37a55.5 55.5 0 0 1 2.42-5.49 22.72 22.72 0 0 1 2-3.13c.39-.5.81-1 1.23-1.44.22-.24.45-.47.69-.71l.72-.7a20.54 20.54 0 0 1 3-2.39 25 25 0 0 1 3.32-1.77c1.36-.61 2.8-1.14 4.18-1.66 1-.36 2-.73 2.93-1.13a26.44 26.44 0 0 0 6.47-3.57 18.88 18.88 0 0 0 2.49-2.31c.18-.2.35-.41.53-.62s.33-.42.49-.64a15.2 15.2 0 0 0 .83-1.3 17.77 17.77 0 0 0 1.87-4.93 23.26 23.26 0 0 0 .5-6.28zm-53.63 53.52l-1.8-.21-1.35-.28-1.64-.45a4.2 4.2 0 0 1-.62-.22l-.26-.1-.35-.14a6.19 6.19 0 0 1-.61-.26 15.14 15.14 0 0 1-3.92-2.63 16.8 16.8 0 0 1-1.82-2 18.94 18.94 0 0 1-1.58-2.5 25.82 25.82 0 0 1-1.34-2.91l-.12-.32c-.06-.16-.13-.31-.18-.47l-.29-.82-.21-.61c-.13-.35-.25-.71-.37-1.08l-1.09-3.25-.2-.56c-.43-1.17-.89-2.39-1.48-3.61a23 23 0 0 0-2.26-3.8l-.69-.9-.5-.58-.24-.27c-.17-.2-.34-.38-.52-.56l-.26-.27c-.26-.27-.53-.54-.8-.8a22.12 22.12 0 0 0-3.59-2.85 23.82 23.82 0 0 0-3.94-2c-1.78-.72-3.49-1.26-5.15-1.79-.79-.25-1.56-.49-2.31-.75a33.58 33.58 0 0 1-3.23-1.2 24.07 24.07 0 0 1-2.82-1.5l-.38-.25-.23-.14-.24-.17a3 3 0 0 1-.36-.26l-.36-.28c-.27-.22-.52-.42-.77-.66a11.87 11.87 0 0 1-1.81-2A17 17 0 0 1 20 77.42a24.71 24.71 0 0 1-1-3.55c-.08-.34-.13-.66-.18-1 0-.13 0-.26-.06-.37l-.06-.44c0-.21-.06-.39-.07-.56l-.09-.8c0-.08 0-.35.09-.8a22.57 22.57 0 0 1 .4-2.31 24.1 24.1 0 0 1 1.09-3.5A18.69 18.69 0 0 1 22.35 60a12.09 12.09 0 0 1 1.81-2 16.47 16.47 0 0 1 2.36-1.73 27 27 0 0 1 6.05-2.64l2.09-.63c1.72-.54 3.5-1.09 5.35-1.86a25.17 25.17 0 0 0 3.91-2 22.35 22.35 0 0 0 3.56-2.88l.78-.77c.26-.27.52-.55.77-.83a22.55 22.55 0 0 0 1.43-1.77 24.39 24.39 0 0 0 2.23-3.79A51 51 0 0 0 55 32.88c.13-.4.27-.81.4-1.2a37.34 37.34 0 0 1 2.5-6.18 17.52 17.52 0 0 1 3.4-4.5 15.12 15.12 0 0 1 3.93-2.58 18.9 18.9 0 0 1 3.47-1.19 23.56 23.56 0 0 1 2.3-.41l.62-.07h.18l1.8.25 1.35.29a5.26 5.26 0 0 1 .7.19l.91.28a2.1 2.1 0 0 1 .42.15l.45.18.32.13a4.14 4.14 0 0 1 .61.28l1 .49 1 .63a2.7 2.7 0 0 1 .34.25l.63.47a5.9 5.9 0 0 1 .46.39l.49.44c.11.1.22.22.34.34l.56.6.82 1.04a21.33 21.33 0 0 1 1.55 2.5A40 40 0 0 1 88 31.83l1.2 3.58.11.28a36 36 0 0 0 1.44 3.5A23.88 23.88 0 0 0 93 43l.68.88c.16.2.33.39.5.58l.24.27c.16.2.34.38.51.56s.18.17.26.26c.26.27.53.54.8.79a22.07 22.07 0 0 0 3.55 2.85 24.67 24.67 0 0 0 3.91 2c1.82.75 3.57 1.3 5.26 1.83l2.14.69a26.57 26.57 0 0 1 6 2.64l1.23.82.73.58a2.9 2.9 0 0 1 .38.33l.61.56.14.14.22.25.25.27a5.81 5.81 0 0 1 .58.73l.56.77.1.17.67 1.14.6 1.25.15.3.57 1.48c.07.19.12.38.18.57a2.58 2.58 0 0 0 .1.33l.25.85c0 .17.08.33.12.49l.06.28c0 .19.07.37.11.54s.12.54.16.77l.24 1.79v.19c0 .13 0 .34-.07.61-.06.51-.17 1.32-.37 2.32a25 25 0 0 1-1 3.53 17 17 0 0 1-2.21 4.18 12.18 12.18 0 0 1-.82 1l-.46.48-.51.48a18.61 18.61 0 0 1-2.33 1.78 26.43 26.43 0 0 1-6 2.71l-2.31.74c-1.65.51-3.35 1-5.12 1.75a26.22 26.22 0 0 0-3.93 2 22.21 22.21 0 0 0-3.6 2.82l-.48.47-.31.3-.78.82a22.06 22.06 0 0 0-1.45 1.75 22.79 22.79 0 0 0-2.29 3.77 50.07 50.07 0 0 0-2.47 6.45l-.31.94a40.14 40.14 0 0 1-2.45 6.22 17.69 17.69 0 0 1-3.32 4.56 14.73 14.73 0 0 1-3.89 2.62A19.89 19.89 0 0 1 75 124.5c-1 .26-1.81.39-2.31.47l-.62.08z"/>
  <path fill="url(#c)" d="M143.3 71.07l-.12-1.49v-2.34-1.1c0-.21 0-.43-.05-.68s0-.22 0-.34a6.16 6.16 0 0 0-.06-.72l-.17-1.14a18.36 18.36 0 0 0-.38-2l-.14-.6a26.13 26.13 0 0 0-2.42-6.12l-.46-.8-.68-1.07a13.14 13.14 0 0 0-1-1.37 26.23 26.23 0 0 0-2.82-3.16 32.71 32.71 0 0 0-3.46-2.83l-.93-.67-.64-.43-.33-.22-.64-.41c-.44-.3-.89-.59-1.34-.87l-4-2.53-2-1.34c-.32-.21-.63-.43-1-.69l-1-.73c-.54-.37-1.08-.8-1.6-1.21l-1.36-1.08c-.21-.17-.41-.35-.61-.53l-.34-.29-.73-.63c-.4-.35-.81-.7-1.21-1.07l-2-1.88a87.41 87.41 0 0 1-7.07-7.3 93.27 93.27 0 0 1-5.7-7.68l-.4-.58-.92-1.33L96.28 12c-.3-.4-.61-.79-.92-1.17a13.5 13.5 0 0 1-.47-.59l-.24-.29c-.15-.19-.3-.37-.47-.56l-.74-.82-.44-.52-.27-.27c-.24-.25-.48-.49-.75-.73l-.78-.71-.53-.44-.26-.21c-.4-.33-.82-.63-1.22-.92l-.36-.25a7.52 7.52 0 0 0-.69-.46l-.94-.56A24.47 24.47 0 0 0 81 1l-.22-.08a3.45 3.45 0 0 0-.46-.12l-1.1-.23-.84-.17-1.17-.15h-.33c-.26 0-.5-.07-.73-.08 0 0-1.25-.09-1.69-.1h-2.39L70.33 0a30 30 0 0 0-3.09.16 30.74 30.74 0 0 0-4.86.84 25.57 25.57 0 0 0-6.15 2.5c-.26.15-.53.3-.8.47s-.57.37-.83.55c-.51.35-1 .73-1.58 1.17s-1.08.89-1.59 1.37l-.74.73c-.24.25-.5.5-.74.76-.55.57-1.07 1.2-1.46 1.68s-.91 1.13-1.39 1.77c-.89 1.21-1.73 2.42-2.66 3.78a91 91 0 0 1-5.68 7.68c-1 1.2-2.16 2.45-3.39 3.7-.57.59-1.17 1.19-1.83 1.82l-.95.91-.84.8-.14.14a75.61 75.61 0 0 1-7.77 6.63c-2.22 1.62-4.52 3-6.75 4.44l-1.33.83c-.67.41-1.33.84-2 1.26s-1.22.82-1.91 1.33l-.25.19c-.52.37-1 .76-1.56 1.19s-1.14 1-1.64 1.45a20.5 20.5 0 0 0-1.54 1.55c-.44.5-.87 1-1.31 1.57l-.06.08c-.19.24-.37.47-.56.74s-.38.56-.55.82c-.4.63-.71 1.15-1 1.61A25.77 25.77 0 0 0 1 60.63a27.94 27.94 0 0 0-.78 4.84c-.1 1.26-.09 2.26-.08 3.07v1.02L0 72v2.93l.08 1.19v.43c0 .29 0 .58.08.88l.21 1.4a26.34 26.34 0 0 0 1.9 6.46q.27.57.57 1.17l.28.57.11.19c.29.51.59 1 .92 1.56a24.67 24.67 0 0 0 2.64 3.43l.12.13a2.44 2.44 0 0 0 .27.29l.68.68.57.54.84.76c.19.17.4.34.61.51l.3.25c.28.24.56.44.84.64l1.09.8.34.24c.21.16.43.32.65.46l1 .66c1.05.69 2.15 1.37 3.21 2 1.72 1.06 3.49 2.16 5.2 3.35a67.2 67.2 0 0 1 8.1 6.62c1 .95 2 1.91 3 2.84l.92.88c.22.21.43.43.63.64a3.83 3.83 0 0 0 .28.29l.89.94.33.34c.19.2.38.39.55.59l.84 1a75.75 75.75 0 0 1 5.95 7.72l1.35 2c.3.44.62.88.93 1.32l.43.59.23.33.45.6.72.89.39.49c.33.41.67.84 1 1.23s.84.9 1.24 1.3l.27.27.53.5.27.25a10.4 10.4 0 0 0 .8.69l.79.64.54.39.28.2.27.2c.18.13.35.25.54.37l.82.5a25.63 25.63 0 0 0 6.25 2.66l.7.2.47.1 1.53.33.6.09c.6.08 1.16.17 1.69.23l1.83.14c.61 0 1.82.16 2.43.16h1.81c.69 0 1.63 0 3.05-.12a30.76 30.76 0 0 0 5-1.08 26.94 26.94 0 0 0 3-1c.57-.23 1.09-.48 1.61-.73s1.22-.65 1.63-.89.55-.33.84-.52l.81-.56c.61-.44 1.12-.84 1.6-1.23s1.12-1 1.59-1.44 1-1 1.51-1.56.86-1 1.26-1.5l.19-.23c.54-.68 1-1.28 1.4-1.84.8-1.1 1.57-2.22 2.38-3.4l.31-.45a76.59 76.59 0 0 1 5.9-7.79c1.07-1.22 2.26-2.49 3.54-3.75l1.91-1.85c.33-.3.69-.64 1-1l1-.93a67.51 67.51 0 0 1 8.1-6.61c1.73-1.21 3.54-2.32 5.28-3.4 1-.64 2.1-1.3 3.13-2 .83-.53 1.48-1 2-1.37l.13-.1c.61-.44 1.18-.85 1.79-1.34s1.23-1 1.76-1.53c.27-.25.57-.53.84-.8s.54-.56.8-.84c.46-.52.92-1.06 1.4-1.67l.33-.43c.12-.15.23-.31.33-.45.21-.3.39-.6.57-.88a25.56 25.56 0 0 0 1.88-3.49 26.45 26.45 0 0 0 1.97-6.49 30.58 30.58 0 0 0 .4-5c0-1.12-.06-2.04-.1-2.71zm-.73.12c0 .67-.1 1.51-.23 2.53a31 31 0 0 1-.92 4.72 26.55 26.55 0 0 1-2.37 5.79 25.82 25.82 0 0 1-2 3l-.58.75-.29.34-.33.36c-.48.52-1 1-1.4 1.44l-.74.68-.79.65c-.54.43-1.12.88-1.71 1.3s-1.14.76-1.74 1.14l-.12.08c-.63.41-1.24.77-2 1.18l-2.47 1.4c-2.05 1.14-4.17 2.32-6.29 3.71a63.19 63.19 0 0 0-8.7 6.89l-1 1c-.33.33-.63.62-1 .94-.68.64-1.34 1.3-2 2a86.56 86.56 0 0 0-3.66 4 68.88 68.88 0 0 0-5.87 8.4l-.66 1.09c-.59 1-1.18 1.94-1.76 2.86-.34.55-.71 1.1-1.2 1.8l-.19.27c-.36.51-.69 1-1 1.42s-.87 1.06-1.3 1.55a16.28 16.28 0 0 1-1.25 1.38c-.4.39-.85.8-1.38 1.26-.23.19-.47.4-.69.57s-.45.35-.68.52a24.78 24.78 0 0 1-5.55 3 33.72 33.72 0 0 1-4.63 1.43 21 21 0 0 1-2.53.5 9.78 9.78 0 0 1-1.61.12c-.66 0-1.4 0-1.63-.09l-1.24-.17-1.76-.34c-.45-.1-.93-.23-1.44-.36l-.7-.18-1.21-.4-.24-.08-.39-.13-.65-.26a24.82 24.82 0 0 1-5.5-3l-.71-.52c-.15-.11-.28-.23-.43-.35l-.25-.22-.26-.23c-.15-.12-.29-.25-.43-.38l-.7-.65c-.21-.19-.41-.41-.64-.66l-.25-.27c-.13-.14-.27-.28-.4-.44l-.26-.31c-.35-.4-.71-.82-1-1.25s-.56-.74-.85-1.15l-.37-.54-.62-.89c-.13-.18-.25-.38-.37-.57s-.15-.23-.22-.34l-.45-.73c-.25-.39-.5-.78-.75-1.19l-1.23-2a66.5 66.5 0 0 0-5.88-8.4l-.86-1c-.19-.23-.4-.45-.6-.67l-.31-.34-1.19-1.29c-.22-.24-.45-.49-.69-.72l-.07-.06c-1.26-1.25-2.57-2.55-3.92-3.8a61.88 61.88 0 0 0-8.67-6.89c-2.11-1.38-4.21-2.55-6.24-3.69L16 95.18l-1-.58c-.21-.12-.41-.25-.6-.38L14 94l-1.09-.69c-.27-.18-.53-.34-.77-.52l-.33-.25c-.18-.12-.35-.25-.52-.38l-.86-.68-.5-.41-.28-.24-.39-.33a2.28 2.28 0 0 1-.22-.22L7.2 88.36l-.2-.24-.68-.87c-.31-.4-.59-.82-.88-1.22l-.19-.27c-.11-.2-.23-.39-.35-.59s-.39-.62-.57-.94A26.63 26.63 0 0 1 2 78.44l-.35-1.32c-.06-.26-.11-.53-.16-.78s-.05-.3-.08-.44l-.21-1.14c0-.23-.06-.45-.08-.67s0-.25 0-.37S1 73.22 1 73c-.05-.38-.09-.74-.11-1.06l-.17-2.36v-.24l.09-.77c.06-.57.19-1.63.46-3a29.41 29.41 0 0 1 1.29-4.5 25.73 25.73 0 0 1 2.8-5.42c.35-.52.72-1 1-1.41.18-.24.36-.46.55-.68l.59-.66c.46-.48.9-.94 1.33-1.35s.95-.86 1.45-1.25 1.1-.86 1.63-1.24.92-.63 1.44-1l.3-.19c.72-.46 1.3-.81 1.86-1.14l2-1.12 1-.55c1-.58 2.12-1.18 3.21-1.81 1.61-.94 3-1.84 4.35-2.75a65.76 65.76 0 0 0 8.32-6.88l1.94-1.87c.69-.67 1.31-1.3 1.9-1.93 1.26-1.33 2.44-2.68 3.51-4a75.84 75.84 0 0 0 5.61-8.25l.27-.44c.72-1.19 1.41-2.32 2.09-3.38.38-.58.79-1.16 1.2-1.75s.8-1.12 1.2-1.6l.64-.77.69-.63a17.67 17.67 0 0 1 1.29-1.31c.48-.45.94-.85 1.39-1.23.22-.19.42-.35.64-.51l.7-.51a25.13 25.13 0 0 1 5.43-2.83 33.34 33.34 0 0 1 4.52-1.41c1.26-.29 2.25-.44 3-.55a12 12 0 0 1 1.64-.09 7.57 7.57 0 0 1 1.36.12l.87.16 1.72.33a6.15 6.15 0 0 1 .66.15l.33.09 1.1.28.73.23.44.15.63.21a3.12 3.12 0 0 1 .39.15l.23.09a24.63 24.63 0 0 1 5.4 2.87l.81.6a4.71 4.71 0 0 1 .56.44l.35.31c.34.28.69.58 1 .9l.25.23.42.4.7.73c.2.21.4.44.63.72l.24.28c.14.16.28.32.4.48l.62.79c.13.16.25.34.37.52l.22.31.44.63c.26.37.52.73.76 1.11L96 17.63a79.87 79.87 0 0 0 5.62 8.24l1.69 2 1.8 2c.43.48.89.93 1.34 1.37l.57.56.57.56c.46.45.92.9 1.39 1.34l2 1.86c.45.41.93.81 1.39 1.2l.67.57.35.3.7.57 1.38 1c.59.45 1.2.91 1.83 1.32l1.08.73c.36.25.72.49 1.09.7l.62.39c.52.31 1 .63 1.58 1l4.17 2.35c.43.23.83.46 1.23.7l.75.42.34.2.61.35.92.59a31 31 0 0 1 3.38 2.39 25 25 0 0 1 2.77 2.6 13.84 13.84 0 0 1 .95 1.1l1.21 1.65a26.2 26.2 0 0 1 2.8 5.41c.07.22.15.43.22.64a16.38 16.38 0 0 1 .56 1.78l.3 1.1a5.19 5.19 0 0 1 .13.64c0 .12.05.24.07.35s.09.46.13.68.14.7.18 1l.28 2.29z"/>
  <path fill="url(#d)" d="M130.56 99.32c0-.45 0-.94-.08-1.41v-.24-.48l-.28-2.06-.36-2c-.13-.66-.27-1.34-.42-2q-.59-2.49-1.14-4.74c-.62-2.59-1.16-5.28-1.61-8s-.63-4.36-.76-5.52c-.16-1.32-.26-2-.26-2l-.27-1.82-.24 1.82s-.1.73-.25 2-.31 3.47-.36 5.68a56.84 56.84 0 0 0 .54 8.45c.23 1.6.49 3.24.78 4.86.09.45.16.89.23 1.33s.13.78.2 1.18l.45 3.2V98.39c0 .34.06.67.07 1 .05.8.07 1.54.07 2.4v.86l-.08 1.17-.14 1.26v.33c0 .32-.09.62-.16.93a28.56 28.56 0 0 1-2.5 7.45c-.16.38-.36.73-.55 1.08l-.19.35-.23.42-1.48 2.43a1.85 1.85 0 0 1-.19.27l-.1.14a12.36 12.36 0 0 1-2.7 2.75l-.14.1-.26.19-1.55 1-1.59.92a10 10 0 0 1-1.08.57 27.59 27.59 0 0 1-7.29 2.54c-.3.07-.59.11-.91.16l-.78.12h-.16l-1.43.1h-1.35c-.77 0-1.44 0-2.19-.07-.36 0-.7 0-1-.08h-.77l-1.9-.27-1.24-.19-1.15-.21-1.31-.23c-1.58-.29-3.18-.56-4.77-.81a55.91 55.91 0 0 0-8.3-.55c-2.16.06-4.14.19-5.55.37s-2 .25-2 .25l-1.73.24 1.72.26s.72.11 2 .27 3.52.48 5.41.78c2.67.46 5.3 1 7.83 1.64 1.48.38 3 .77 4.66 1.17.61.15 1.26.29 1.89.42l1 .2.72.13 2.32.34h.71c.46 0 .94.07 1.38.08h1c.58 0 1.18 0 1.75-.06l1.31-.13 1.06-.16 1.11-.22.4-.1a11.72 11.72 0 0 0 1.16-.32 23.89 23.89 0 0 0 7.63-3.9 12.84 12.84 0 0 0 1.1-.88l.58-.5 1-1 1.14-1.16c.09-.09.17-.19.25-.28l.11-.13.66-.79a11.82 11.82 0 0 1 1.4-1.43l.78-.67.12-.11.28-.25 1.12-1.15 1-1.05.48-.58c.29-.35.59-.71.86-1.11a25 25 0 0 0 3.83-7.78 12.54 12.54 0 0 0 .33-1.24l.17-.73a1.69 1.69 0 0 0 .05-.24l.24-1.61.13-1.33c-.21-.57-.2-1.56-.23-2.44z"/>
  <path fill="url(#e)" d="M71.72 125.34s-.72-.1-2-.25a54.53 54.53 0 0 0-5.56-.37h-.57a54 54 0 0 0-7.73.55c-1.6.24-3.2.51-4.77.8l-1.3.23-1.16.2-3.13.46h-.8c-.33 0-.67.06-1 .07-.72 0-1.39.07-2.18.07h-1.34l-.83-.07-1.21-.14-.36-.05c-.31 0-.6-.09-.89-.16a27.33 27.33 0 0 1-7.3-2.55c-.37-.17-.72-.37-1.06-.56l-.35-.2-.58-.33-2.21-1.41a2.48 2.48 0 0 1-.26-.19l-.14-.1a11.86 11.86 0 0 1-2.69-2.74l-.12-.15c0-.09-.12-.17-.17-.26l-1-1.58-.72-1.27-.19-.36a11.07 11.07 0 0 1-.56-1.09 29.36 29.36 0 0 1-2.49-7.44 8.44 8.44 0 0 1-.15-.9l-.05-.32-.14-1.33-.09-1.61v-.75c0-.7 0-1.35.07-2 0-.37 0-.71.07-1.06v-.79l.24-2.02.19-1.26c.07-.4.14-.79.2-1.17s.15-.89.23-1.34c.29-1.63.55-3.26.79-4.86a60.08 60.08 0 0 0 .54-8.46c-.05-2.2-.18-4.21-.36-5.67s-.24-2-.24-2L18.07 69l-.26 1.81s-.11.74-.27 2.06-.47 3.6-.76 5.51c-.44 2.66-1 5.35-1.61 8-.37 1.5-.76 3.08-1.15 4.75-.15.63-.28 1.31-.42 2l-.18.9-.12.67-.3 2.46v.72c0 .51-.08 1-.08 1.4v2.78l.08 1.34.14 1 .26 1.36.06.28c.09.4.19.81.32 1.2A24.78 24.78 0 0 0 17.6 115a12.69 12.69 0 0 0 .86 1.12l.79 1c.06.07.11.14.18.21l1.57 1.55.27.25.13.11.77.67a11.28 11.28 0 0 1 1.41 1.44c.19.22.41.48.66.79l.11.13.25.28 1.13 1.15 1 1 .58.5a13.58 13.58 0 0 0 1.08.86 24.35 24.35 0 0 0 7.63 3.92c.38.12.78.22 1.17.32l.42.1 1.09.21 1.08.17 1.3.13c.57 0 1.18.06 1.77.06h.95c.45 0 .94 0 1.38-.08h.71l2-.29 2-.37c.64-.13 1.3-.27 1.91-.42 1.64-.4 3.19-.79 4.66-1.17 2.55-.63 5.19-1.18 7.83-1.64s4.28-.64 5.42-.77c1.29-.16 2-.27 2-.27l1.72-.26z"/>
  <path fill="url(#f)" d="M130.54 39.75l-.13-1.34-.15-1-.26-1.32-.07-.29c-.09-.4-.19-.81-.31-1.19a25.33 25.33 0 0 0-3.83-7.78 12.69 12.69 0 0 0-.86-1.12l-.61-.72-.7-.78-1.25-1.28-.27-.25-.13-.11c-.3-.26-.55-.49-.77-.67a12 12 0 0 1-1.41-1.44l-.66-.79-.11-.13-.24-.28-1.29-1.26c-.21-.22-.44-.43-.67-.64l-.76-.65a10.66 10.66 0 0 0-1.09-.87 24.35 24.35 0 0 0-7.63-3.92c-.38-.13-.79-.23-1.22-.33l-.72-.18h-.23l-1.58-.24-1.31-.13c-.88-.06-1.87-.07-2.71 0-.43 0-.88 0-1.39.08L98 11h-.48l-2.33.34c-.24 0-.48.08-.72.13l-.91.19c-.64.13-1.3.27-1.92.42q-2.45.6-4.65 1.17c-2.59.64-5.22 1.19-7.84 1.64-1.88.29-4 .61-5.41.77s-2 .27-2 .27l-1.74.3 1.73.24s.71.1 2 .25 3.41.32 5.57.37h.58a54.07 54.07 0 0 0 7.72-.55c1.58-.24 3.18-.51 4.77-.8l1.29-.23 1.16-.2 3.14-.46h.77l1-.08c.74 0 1.41-.07 2.17-.07l1.35.05 1.43.11h.17l.79.12c.31.05.61.09.91.16a27.22 27.22 0 0 1 7.3 2.55 9.56 9.56 0 0 1 1 .56l.35.2.69.39 2.1 1.35.26.18.15.11a12.1 12.1 0 0 1 2.7 2.74v.05l.1.14.19.27 1 1.58.72 1.27c.06.12.13.24.2.36A11.07 11.07 0 0 1 124 28a28.47 28.47 0 0 1 2.49 7.44c.07.29.11.59.16.9l.06.41.12 1.15.07.89v1.18c0 .89 0 1.63-.07 2.42 0 .37 0 .72-.08 1.07v.78l-.27 1.94-.19 1.26c-.07.4-.13.79-.2 1.17s-.14.89-.23 1.34c-.28 1.61-.55 3.25-.78 4.86a58.45 58.45 0 0 0-.55 8.46c.06 2.2.18 4.22.36 5.67s.25 2.06.25 2.06l.24 1.81.27-1.81s.1-.74.26-2.06.47-3.59.76-5.51c.44-2.68 1-5.36 1.61-8 .38-1.5.76-3.08 1.15-4.75.15-.63.29-1.31.42-2l.19-1c.05-.23.09-.45.12-.68l.34-2.4v-.72c0-.44.07-.94.07-1.4a26 26 0 0 0-.03-2.73z"/>
  <path fill="url(#g)" d="M12.86 39.75l.14-1.34.14-1 .26-1.35.07-.29c.09-.4.19-.81.31-1.19a25.33 25.33 0 0 1 3.83-7.78 12.69 12.69 0 0 1 .86-1.12l.49-.58.94-1.05 1.1-1.12.27-.25.14-.11c.29-.26.55-.49.77-.67a11.91 11.91 0 0 0 1.4-1.44c.19-.22.41-.48.66-.79l.12-.13.24-.28L25.9 18c.22-.22.45-.43.68-.64l.75-.65a11.87 11.87 0 0 1 1.09-.87 24.4 24.4 0 0 1 7.64-3.92 11.93 11.93 0 0 1 1.22-.33l.71-.18h.23l1.59-.24 1.31-.13c.88-.06 1.87-.07 2.71 0 .43 0 .88 0 1.38.08h.71l2.34.34c.24 0 .48.08.71.13l.92.19c.64.13 1.3.27 1.92.42q2.44.6 4.65 1.17c2.58.64 5.22 1.19 7.83 1.64 1.89.29 4 .61 5.42.77s2 .27 2 .27l1.72.26-1.72.24s-.72.1-2 .25-3.4.32-5.56.37h-.58a54.07 54.07 0 0 1-7.72-.55c-1.58-.24-3.19-.51-4.77-.8l-1.3-.23-1.15-.2-3.15-.46h-.76l-1.06-.08c-.73 0-1.4-.07-2.17-.07l-1.34.05-1.44.11h-.16l-.79.12c-.31.05-.61.09-.91.16a27.1 27.1 0 0 0-7.3 2.55 8.73 8.73 0 0 0-1.05.56l-.36.2-.68.39-2.11 1.35-.26.18-.14.11a11.86 11.86 0 0 0-2.69 2.74v.05l-.1.14-.19.27-1 1.58-.71 1.27-.2.36a11.07 11.07 0 0 0-.63 1.03 28.84 28.84 0 0 0-2.49 7.44q-.09.43-.15.9l-.08.54-.1.88-.07 1-.05 1.18c0 .89 0 1.63.07 2.42 0 .37.05.72.08 1.07v.78l.36 1.93.2 1.26c.07.4.13.79.19 1.17s.15.89.23 1.34c.29 1.61.56 3.25.79 4.86a57.06 57.06 0 0 1 .54 8.46c-.05 2.2-.18 4.22-.36 5.67s-.27 2.1-.27 2.1l-.24 1.81-.27-1.81s-.11-.74-.27-2.06-.47-3.59-.75-5.51c-.45-2.68-1-5.36-1.62-8a393 393 0 0 1-1.14-4.75c-.15-.63-.29-1.31-.42-2l-.19-1c-.05-.23-.09-.45-.12-.68l-.3-2.35v-.72c0-.44-.07-.94-.08-1.4-.13-.86-.12-1.85-.06-2.78z"/>
  <path fill="#010101" d="M281.93 36.32l-13.59 34.21h5.73l3.57-9.3h13.2l3.61 9.3h5.69l-13.49-34.21zm-3.33 20.91l5.69-14.69 5.49 14.69zM233.27 63.74l-10.31-27.41h-5.74l13.73 34.2h4.63l13.68-34.2h-5.73l-10.26 27.41z"/>
  <path fill="#818181" d="M285.79 84.06h-8v19.42h7.95c5.94 0 10.23-4.11 10.23-9.71s-4.3-9.71-10.18-9.71zm.08 16.48h-4.82V87h4.68a6.65 6.65 0 0 1 6.86 6.8 6.54 6.54 0 0 1-6.72 6.74zM176.67 96.96l-6.47-12.9h-3.92v19.42h3.1V88.97l6.19 12.49h2.16l6.19-12.49.03 14.51H187V84.06h-3.89l-6.44 12.9z"/>
  <path fill="#010101" d="M179.93 36.32l-13.58 34.21h5.73l3.57-9.3h13.2l3.61 9.3h5.68l-13.49-34.21zm-3.32 20.91l5.68-14.69 5.5 14.69z"/>
  <path fill="#818181" d="M229.08 95.18h9.58v-2.91h-9.58V87h10.7v-2.94h-14v19.42h14.34v-2.94h-11.04v-5.36zM383.85 100.57a6.84 6.84 0 1 1 0-13.68 7.67 7.67 0 0 1 5.46 2.47l1.93-2.36a10.87 10.87 0 0 0-7.45-3c-5.8 0-10.3 4.25-10.3 9.77a9.89 9.89 0 0 0 10.19 9.88 11.2 11.2 0 0 0 7.59-3.19l-2-2.17a8.12 8.12 0 0 1-5.42 2.28zM485.66 84.06h-3.3v19.42h11.79v-2.97h-8.49V84.06zM434.19 84.06l-8.65 19.42H429l1.87-4.38h9.89l1.88 4.38h3.52l-8.57-19.42zm-2.1 12.12l3.7-8.63 3.7 8.63z"/>
  <path fill="#010101" d="M489.19 36.37v24.62l-19.56-24.66h-4.24v34.2h5.4V46.44l19.36 24.09h4.48V36.37h-5.44zM373.37 36.32h5.4v34.21h-5.4zM319.22 41.09h11.41v29.44h5.45V41.09h11.37v-4.76h-28.23v4.76z"/>
  <path fill="#818181" d="M333.05 84.06h3.3v19.42h-3.3z"/>
  <path fill="#010101" d="M433.79 65.55a17.43 17.43 0 0 0 3.44-5.55 17.84 17.84 0 0 0 0-12.89 18.21 18.21 0 0 0-3.23-5.53 16.71 16.71 0 0 0-5.15-4 14.64 14.64 0 0 0-6.67-1.52 15.19 15.19 0 0 0-6.58 1.43 16.22 16.22 0 0 0-5.2 3.83 18 18 0 0 0-3.45 5.54 17.54 17.54 0 0 0-1.25 6.55 18 18 0 0 0 1.18 6.41 17.65 17.65 0 0 0 3.35 5.56 16.57 16.57 0 0 0 5.18 3.9 15.8 15.8 0 0 0 13.2 0 17 17 0 0 0 5.18-3.73zm-11.71.36a9.81 9.81 0 0 1-4.53-1 10.69 10.69 0 0 1-3.45-2.77 12.9 12.9 0 0 1-2.19-4 14.47 14.47 0 0 1-.77-4.67 14.23 14.23 0 0 1 .75-4.55 12.71 12.71 0 0 1 2.14-4 11 11 0 0 1 3.42-2.82 9.68 9.68 0 0 1 4.63-1.1 9.5 9.5 0 0 1 4.45 1 10.93 10.93 0 0 1 3.47 2.78 12.58 12.58 0 0 1 2.2 3.95 14.47 14.47 0 0 1 .77 4.7 14.32 14.32 0 0 1-.73 4.53 12.81 12.81 0 0 1-2.12 4 10.74 10.74 0 0 1-3.39 2.86 9.42 9.42 0 0 1-4.65 1.09z"/>
</svg>