<svg width="155" height="27" viewBox="0 0 155 27" fill="none" xmlns="http://www.w3.org/2000/svg">
<g clip-path="url(#clip0)">
<line x1="15.4074" y1="2" x2="7.70371" y2="2" stroke="white" stroke-width="2"/>
<line x1="8.2963" y1="2" x2="0.592592" y2="2" stroke="white" stroke-width="2"/>
<line x1="8.2963" y1="14" x2="0.592592" y2="14" stroke="white" stroke-width="2"/>
<line x1="0.185181" y1="14" x2="0.185181" y2="1" stroke="white" stroke-width="2"/>
<line x1="14.4074" y1="14" x2="14.4074" y2="1" stroke="white" stroke-width="2"/>
<line x1="0.185181" y1="26" x2="0.185181" y2="13" stroke="white" stroke-width="2"/>
<ellipse cx="0.888889" cy="1.5" rx="0.888889" ry="1.5" fill="#C4C4C4"/>
<ellipse cx="8" cy="1.5" rx="0.888889" ry="1.5" fill="#C4C4C4"/>
<ellipse cx="15.1111" cy="1.5" rx="0.888889" ry="1.5" fill="#C4C4C4"/>
<line x1="15.4074" y1="14" x2="7.70371" y2="14" stroke="white" stroke-width="2"/>
<ellipse cx="15.1111" cy="13.5" rx="0.888889" ry="1.5" fill="#C4C4C4"/>
<ellipse cx="0.888889" cy="25.5" rx="0.888889" ry="1.5" fill="#C4C4C4"/>
<ellipse cx="0.888889" cy="13.5" rx="0.888889" ry="1.5" fill="#C4C4C4"/>
<ellipse cx="8" cy="13.5" rx="0.888889" ry="1.5" fill="#C4C4C4"/>
<line x1="34.4074" y1="14" x2="26.7037" y2="14" stroke="white" stroke-width="2"/>
<line x1="27.2963" y1="2" x2="19.5926" y2="2" stroke="white" stroke-width="2"/>
<line x1="34.4074" y1="2" x2="26.7037" y2="2" stroke="white" stroke-width="2"/>
<line x1="19.1852" y1="14" x2="19.1852" y2="1" stroke="white" stroke-width="2"/>
<line x1="33.4074" y1="14" x2="33.4074" y2="1" stroke="white" stroke-width="2"/>
<line x1="19.1852" y1="26" x2="19.1852" y2="13" stroke="white" stroke-width="2"/>
<ellipse cx="19.8889" cy="1.5" rx="0.888889" ry="1.5" fill="#C4C4C4"/>
<ellipse cx="27" cy="1.5" rx="0.888889" ry="1.5" fill="#C4C4C4"/>
<ellipse cx="34.1111" cy="1.5" rx="0.888889" ry="1.5" fill="#C4C4C4"/>
<ellipse cx="19.8889" cy="13.5" rx="0.888889" ry="1.5" fill="#C4C4C4"/>
<ellipse cx="19.8889" cy="25.5" rx="0.888889" ry="1.5" fill="#C4C4C4"/>
<ellipse cx="34.1111" cy="13.5" rx="0.888889" ry="1.5" fill="#C4C4C4"/>
<line y1="-1" x2="13.151" y2="-1" transform="matrix(-0.509802 -0.860292 0.509802 -0.860292 34.5933 25.3137)" stroke="white" stroke-width="2"/>
<ellipse cx="27" cy="13.5" rx="0.888889" ry="1.5" fill="#C4C4C4"/>
<ellipse cx="34.1111" cy="25.5" rx="0.888889" ry="1.5" fill="#C4C4C4"/>
<line x1="48.7778" y1="2" x2="41.5555" y2="2" stroke="white" stroke-width="2"/>
<line x1="48.7778" y1="26" x2="41.5555" y2="26" stroke="white" stroke-width="2"/>
<line x1="55.4444" y1="26" x2="48.2222" y2="26" stroke="white" stroke-width="2"/>
<line x1="55.4444" y1="2" x2="48.2222" y2="2" stroke="white" stroke-width="2"/>
<line x1="41.1111" y1="14" x2="41.1111" y2="1" stroke="white" stroke-width="2"/>
<line x1="54.4444" y1="14" x2="54.4444" y2="1" stroke="white" stroke-width="2"/>
<line x1="54.4444" y1="26" x2="54.4444" y2="13" stroke="white" stroke-width="2"/>
<line x1="41.1111" y1="26" x2="41.1111" y2="13" stroke="white" stroke-width="2"/>
<ellipse cx="41.8333" cy="1.5" rx="0.833333" ry="1.5" fill="#C4C4C4"/>
<ellipse cx="48.5" cy="1.5" rx="0.833333" ry="1.5" fill="#C4C4C4"/>
<ellipse cx="55.1667" cy="1.5" rx="0.833333" ry="1.5" fill="#C4C4C4"/>
<ellipse cx="41.8333" cy="13.5" rx="0.833333" ry="1.5" fill="#C4C4C4"/>
<ellipse cx="41.8333" cy="25.5" rx="0.833333" ry="1.5" fill="#C4C4C4"/>
<ellipse cx="48.5" cy="25.5" rx="0.833333" ry="1.5" fill="#C4C4C4"/>
<ellipse cx="55.1667" cy="25.5" rx="0.833333" ry="1.5" fill="#C4C4C4"/>
<ellipse cx="55.1667" cy="13.5" rx="0.833333" ry="1.5" fill="#C4C4C4"/>
<path d="M68 26V13" stroke="white" stroke-width="2"/>
<line x1="75.4074" y1="2" x2="67.7037" y2="2" stroke="white" stroke-width="2"/>
<line x1="68.2963" y1="2" x2="60.5926" y2="2" stroke="white" stroke-width="2"/>
<path d="M68 14V1" stroke="white" stroke-width="2"/>
<ellipse cx="68" cy="13.5" rx="0.888889" ry="1.5" fill="#C4C4C4"/>
<ellipse cx="68" cy="1.5" rx="0.888889" ry="1.5" fill="#C4C4C4"/>
<ellipse cx="60.8889" cy="1.5" rx="0.888889" ry="1.5" fill="#C4C4C4"/>
<ellipse cx="75.1111" cy="1.5" rx="0.888889" ry="1.5" fill="#C4C4C4"/>
<line x1="68.2963" y1="26" x2="60.5926" y2="26" stroke="white" stroke-width="2"/>
<ellipse cx="60.8889" cy="25.5" rx="0.888889" ry="1.5" fill="#C4C4C4"/>
<ellipse cx="68" cy="25.5" rx="0.888889" ry="1.5" fill="#C4C4C4"/>
<line x1="87.2963" y1="1.5" x2="79.5926" y2="1.5" stroke="white"/>
<line x1="87.2963" y1="2" x2="79.5926" y2="2" stroke="white" stroke-width="2"/>
<line x1="94.4074" y1="2" x2="86.7037" y2="2" stroke="white" stroke-width="2"/>
<line x1="87.2963" y1="14" x2="79.5926" y2="14" stroke="white" stroke-width="2"/>
<line x1="87.2963" y1="26" x2="79.5926" y2="26" stroke="white" stroke-width="2"/>
<line x1="94.4074" y1="26" x2="86.7037" y2="26" stroke="white" stroke-width="2"/>
<line x1="79.1852" y1="14" x2="79.1852" y2="1" stroke="white" stroke-width="2"/>
<line x1="79.1852" y1="26" x2="79.1852" y2="13" stroke="white" stroke-width="2"/>
<ellipse cx="79.8889" cy="1.5" rx="0.888889" ry="1.5" fill="#C4C4C4"/>
<ellipse cx="79.8889" cy="13.5" rx="0.888889" ry="1.5" fill="#C4C4C4"/>
<ellipse cx="79.8889" cy="25.5" rx="0.888889" ry="1.5" fill="#C4C4C4"/>
<ellipse cx="87" cy="1.5" rx="0.888889" ry="1.5" fill="#C4C4C4"/>
<ellipse cx="94.1111" cy="1.5" rx="0.888889" ry="1.5" fill="#C4C4C4"/>
<ellipse cx="87" cy="13.5" rx="0.888889" ry="1.5" fill="#C4C4C4"/>
<ellipse cx="87" cy="25.5" rx="0.888889" ry="1.5" fill="#C4C4C4"/>
<ellipse cx="94.1111" cy="25.5" rx="0.888889" ry="1.5" fill="#C4C4C4"/>
<line x1="106.778" y1="2" x2="99.5556" y2="2" stroke="white" stroke-width="2"/>
<line x1="106.778" y1="26" x2="99.5556" y2="26" stroke="white" stroke-width="2"/>
<line x1="113.444" y1="26" x2="106.222" y2="26" stroke="white" stroke-width="2"/>
<line x1="113.444" y1="2" x2="106.222" y2="2" stroke="white" stroke-width="2"/>
<line x1="99.1111" y1="14" x2="99.1111" y2="1" stroke="white" stroke-width="2"/>
<line x1="99.1111" y1="26" x2="99.1111" y2="13" stroke="white" stroke-width="2"/>
<ellipse cx="99.8333" cy="1.5" rx="0.833333" ry="1.5" fill="#C4C4C4"/>
<ellipse cx="106.5" cy="1.5" rx="0.833333" ry="1.5" fill="#C4C4C4"/>
<ellipse cx="113.167" cy="1.5" rx="0.833333" ry="1.5" fill="#C4C4C4"/>
<ellipse cx="99.8333" cy="13.5" rx="0.833333" ry="1.5" fill="#C4C4C4"/>
<ellipse cx="99.8333" cy="25.5" rx="0.833333" ry="1.5" fill="#C4C4C4"/>
<ellipse cx="106.5" cy="25.5" rx="0.833333" ry="1.5" fill="#C4C4C4"/>
<ellipse cx="113.167" cy="25.5" rx="0.833333" ry="1.5" fill="#C4C4C4"/>
<path d="M125 26V13" stroke="white" stroke-width="2"/>
<line x1="132.407" y1="2" x2="124.704" y2="2" stroke="white" stroke-width="2"/>
<line x1="125.296" y1="2" x2="117.593" y2="2" stroke="white" stroke-width="2"/>
<path d="M125 14V1" stroke="white" stroke-width="2"/>
<ellipse cx="125" cy="13.5" rx="0.888889" ry="1.5" fill="#C4C4C4"/>
<ellipse cx="125" cy="1.5" rx="0.888889" ry="1.5" fill="#C4C4C4"/>
<ellipse cx="117.889" cy="1.5" rx="0.888889" ry="1.5" fill="#C4C4C4"/>
<ellipse cx="132.111" cy="1.5" rx="0.888889" ry="1.5" fill="#C4C4C4"/>
<ellipse cx="125" cy="25.5" rx="0.888889" ry="1.5" fill="#C4C4C4"/>
<line x1="135.185" y1="14" x2="135.185" y2="1" stroke="white" stroke-width="2"/>
<line x1="149.407" y1="26" x2="149.407" y2="13" stroke="white" stroke-width="2"/>
<path d="M143.296 13.5L135.593 13.5" stroke="white" stroke-width="2"/>
<line x1="150.407" y1="14" x2="142.704" y2="14" stroke="white" stroke-width="2"/>
<line x1="150.407" y1="2" x2="142.704" y2="2" stroke="white" stroke-width="2"/>
<line x1="143.296" y1="2" x2="135.593" y2="2" stroke="white" stroke-width="2"/>
<line x1="143.296" y1="26" x2="135.593" y2="26" stroke="white" stroke-width="2"/>
<line x1="150.407" y1="26" x2="142.704" y2="26" stroke="white" stroke-width="2"/>
<ellipse cx="143" cy="25.5" rx="0.888889" ry="1.5" fill="#C4C4C4"/>
<ellipse cx="135.889" cy="1.5" rx="0.888889" ry="1.5" fill="#C4C4C4"/>
<ellipse cx="150.111" cy="1.5" rx="0.888889" ry="1.5" fill="#C4C4C4"/>
<ellipse cx="150.111" cy="25.5" rx="0.888889" ry="1.5" fill="#C4C4C4"/>
<ellipse cx="150.111" cy="13.5" rx="0.888889" ry="1.5" fill="#C4C4C4"/>
<ellipse cx="143" cy="13.5" rx="0.888889" ry="1.5" fill="#C4C4C4"/>
<ellipse cx="135.889" cy="25.5" rx="0.888889" ry="1.5" fill="#C4C4C4"/>
<ellipse cx="135.889" cy="13.5" rx="0.888889" ry="1.5" fill="#C4C4C4"/>
<ellipse cx="143" cy="1.5" rx="0.888889" ry="1.5" fill="#C4C4C4"/>
</g>
<defs>
<clipPath id="clip0">
<rect width="155" height="27" fill="white"/>
</clipPath>
</defs>
</svg>
